<svg width="200" height="63" viewBox="0 0 200 63" fill="none" xmlns="http://www.w3.org/2000/svg">
<g clip-path="url(#clip0_1_870)">
<path d="M44.9969 11.9165L25.6941 0.772425C25.0465 0.399754 24.3124 0.203613 23.5652 0.203613C22.818 0.203613 22.0839 0.399754 21.4363 0.772425L2.13348 11.9165C1.4863 12.2905 0.948962 12.8282 0.575494 13.4757C0.202025 14.1232 0.00558509 14.8576 0.00592104 15.605V37.9038C0.00551355 38.6509 0.201948 39.3849 0.575446 40.032C0.948945 40.679 1.48632 41.2163 2.13348 41.5896L21.4363 52.7232C22.0836 53.0969 22.8178 53.2937 23.5652 53.2937C24.3126 53.2937 25.0468 53.0969 25.6941 52.7232L44.9969 41.5791C45.6441 41.2058 46.1814 40.6685 46.5549 40.0215C46.9284 39.3744 47.1249 38.6404 47.1245 37.8933V15.5945C47.123 14.8488 46.9256 14.1166 46.5523 13.4712C46.1789 12.8257 45.6425 12.2896 44.9969 11.9165ZM25.4658 34.0448C25.5115 34.0759 25.5598 34.1031 25.6101 34.1261C26.3827 34.5745 26.9864 35.2645 27.3282 36.0898C27.67 36.9151 27.7308 37.8299 27.5014 38.6932C27.272 39.5565 26.765 40.3204 26.0586 40.8672C25.3522 41.414 24.4856 41.7133 23.5923 41.7189C22.6991 41.7246 21.8287 41.4364 21.1154 40.8986C20.4022 40.3608 19.8855 39.6034 19.6452 38.7431C19.4048 37.8828 19.454 36.9673 19.7853 36.1377C20.1166 35.3081 20.7114 34.6105 21.4783 34.1523C21.5616 34.1174 21.6408 34.0734 21.7144 34.0212C21.9447 33.8667 22.1327 33.6569 22.2611 33.4111C22.3895 33.1653 22.4544 32.8913 22.4497 32.614C22.445 32.3367 22.3709 32.065 22.2342 31.8237C22.0975 31.5823 21.9026 31.3791 21.6672 31.2325C21.5439 31.18 21.4232 31.1223 21.3078 31.0594C20.5246 30.6493 19.868 30.0335 19.4086 29.2783C18.9491 28.523 18.7042 27.6568 18.7002 26.7728C18.6961 25.8888 18.9331 25.0204 19.3856 24.2609C19.8381 23.5015 20.489 22.8798 21.2684 22.4625C21.4112 22.385 21.5584 22.3158 21.7091 22.2553C21.9414 22.0988 22.1304 21.8862 22.2586 21.6372C22.3868 21.3882 22.45 21.1108 22.4424 20.8309C22.4348 20.5509 22.3567 20.2774 22.2152 20.0357C22.0737 19.794 21.8735 19.592 21.6331 19.4483C21.6306 19.4471 21.6279 19.4465 21.6252 19.4465C21.6225 19.4465 21.6198 19.4471 21.6173 19.4483C21.592 19.4296 21.5647 19.4138 21.536 19.4011C20.757 18.9546 20.1477 18.263 19.803 17.4339C19.4584 16.6049 19.3978 15.6851 19.6308 14.818C19.8638 13.9509 20.3772 13.1853 21.0909 12.6406C21.8046 12.0959 22.6786 11.8027 23.5764 11.8069C24.4742 11.811 25.3454 12.1121 26.0542 12.6633C26.7629 13.2145 27.2692 13.9848 27.4942 14.854C27.7193 15.7231 27.6503 16.6424 27.2981 17.4682C26.9458 18.2941 26.3302 18.9802 25.5472 19.4194C25.2983 19.5596 25.0897 19.7614 24.9415 20.0056C24.7932 20.2497 24.7104 20.528 24.7009 20.8134C24.6914 21.0989 24.7556 21.382 24.8873 21.6354C25.019 21.8889 25.2137 22.1042 25.4527 22.2605C25.5891 22.3183 25.7151 22.3812 25.8567 22.452C26.6402 22.869 27.2946 23.4923 27.7494 24.2544C28.2041 25.0166 28.4418 25.8885 28.4366 26.776C28.4315 27.6635 28.1838 28.5327 27.7203 29.2895C27.2567 30.0463 26.5951 30.662 25.8069 31.0698C25.7098 31.1223 25.6075 31.1695 25.5052 31.2141C25.2605 31.3588 25.057 31.5639 24.9145 31.8098C24.7719 32.0557 24.6949 32.3342 24.691 32.6184C24.687 32.9026 24.7562 33.1831 24.8919 33.4329C25.0276 33.6827 25.2252 33.8934 25.4658 34.0448Z" fill="#312783"/>
<path d="M80.9871 37.4158C79.644 37.4378 78.3108 37.1833 77.0703 36.6682C75.919 36.1769 74.8998 35.421 74.0954 34.4619C73.224 33.3972 72.5762 32.1677 72.1909 30.8469C71.718 29.2285 71.4916 27.5482 71.5193 25.8625C71.4924 24.1853 71.7188 22.5138 72.1909 20.9043C72.5814 19.5856 73.2286 18.357 74.0954 17.2892C74.8976 16.324 75.9171 15.5625 77.0703 15.0672C79.5802 14.0668 82.3782 14.0668 84.888 15.0672C86.0521 15.5602 87.0812 16.3248 87.8892 17.2971C88.756 18.3649 89.4032 19.5934 89.7937 20.9121C90.2658 22.5217 90.4922 24.1932 90.4653 25.8703C90.493 27.5561 90.2666 29.2364 89.7937 30.8547C89.4068 32.1709 88.7591 33.3958 87.8892 34.4566C87.0811 35.4186 86.0561 36.1747 84.8985 36.6629C83.6598 37.1783 82.3286 37.4346 80.9871 37.4158ZM80.9871 35.0548C81.8983 35.0602 82.8012 34.8817 83.6419 34.5301C84.4412 34.1974 85.1576 33.6932 85.7406 33.0531C86.3437 32.3815 86.8059 31.5955 87.0995 30.7419C87.4314 29.7713 87.5938 28.7508 87.5796 27.7251V24.0077C87.5944 22.9822 87.4329 21.9617 87.1022 20.9908C86.8078 20.1375 86.3458 19.3517 85.7432 18.6796C85.1594 18.0412 84.4431 17.538 83.6445 17.2053C81.941 16.5198 80.0384 16.5198 78.3348 17.2053C77.5357 17.5371 76.8193 18.0404 76.2361 18.6796C75.6317 19.3504 75.1694 20.1366 74.8772 20.9908C74.5455 21.9615 74.3831 22.982 74.3971 24.0077V27.7303C74.3829 28.756 74.5453 29.7765 74.8772 30.7472C75.1688 31.6017 75.6312 32.3881 76.2361 33.0584C76.8184 33.6992 77.5351 34.2035 78.3348 34.5353C79.1754 34.883 80.0774 35.0579 80.9871 35.0495V35.0548Z" fill="#312783"/>
<path d="M95.0274 37.0328V20.5291H97.5957V23.567H97.7557C98.0909 22.7363 98.6437 22.0114 99.356 21.4683C100.125 20.8509 101.181 20.5422 102.522 20.5422H103.514V23.1H102.011C100.622 23.1 99.5396 23.3624 98.7631 23.887C97.9761 24.4117 97.5957 25.0649 97.5957 25.8546V37.0485L95.0274 37.0328Z" fill="#312783"/>
<path d="M108.045 16.6596C107.491 16.6596 107.09 16.5259 106.846 16.2583C106.59 15.9705 106.458 15.5934 106.478 15.2089V14.8023C106.459 14.4179 106.591 14.0413 106.846 13.7529C107.09 13.4906 107.491 13.3542 108.045 13.3542C108.598 13.3542 109 13.488 109.243 13.7529C109.497 14.0418 109.629 14.4181 109.611 14.8023V15.2194C109.63 15.6037 109.498 15.9803 109.243 16.2688C109 16.5259 108.598 16.6596 108.045 16.6596ZM106.778 20.5291H109.338V37.0328H106.778V20.5291Z" fill="#312783"/>
<path d="M128.675 38.8718C128.675 40.5717 128.009 41.8196 126.676 42.6154C125.343 43.4111 123.345 43.8099 120.681 43.8116C118.1 43.8116 116.244 43.4618 115.115 42.7623C114.586 42.4634 114.149 42.026 113.85 41.4972C113.552 40.9684 113.403 40.3682 113.42 39.7611C113.42 38.8665 113.656 38.1687 114.123 37.6624C114.651 37.1272 115.315 36.7462 116.043 36.5606V36.2091C115.591 36.0258 115.207 35.7069 114.943 35.2963C114.68 34.8858 114.55 34.4036 114.572 33.9162C114.549 33.5601 114.61 33.2037 114.749 32.8751C114.888 32.5464 115.101 32.2544 115.372 32.0221C115.975 31.5525 116.673 31.2204 117.418 31.0489V30.9229C116.475 30.4863 115.68 29.7843 115.13 28.9029C114.577 27.9841 114.295 26.9271 114.317 25.8546C114.308 25.0628 114.46 24.2773 114.763 23.546C115.05 22.858 115.481 22.2397 116.028 21.7332C116.593 21.2164 117.255 20.8177 117.977 20.5606C119.832 19.9358 121.853 20.0151 123.654 20.7836V20.4976C123.628 19.9298 123.781 19.3682 124.092 18.8921C124.391 18.4689 124.881 18.2573 125.564 18.2573H128.027V20.5291H124.9V21.5785C125.49 22.0834 125.964 22.7098 126.29 23.4148C126.63 24.1761 126.799 25.0026 126.786 25.8362C126.794 26.6287 126.642 27.4147 126.34 28.1474C126.053 28.835 125.622 29.4531 125.076 29.9602C124.505 30.4783 123.836 30.8762 123.108 31.1302C122.286 31.4173 121.421 31.5585 120.55 31.5473C120.013 31.5474 119.477 31.4937 118.95 31.3873C118.418 31.5269 117.911 31.7482 117.447 32.0431C117.238 32.1648 117.066 32.3402 116.948 32.551C116.829 32.7618 116.77 33.0004 116.775 33.242C116.763 33.4628 116.826 33.6812 116.955 33.8613C117.083 34.0415 117.268 34.1728 117.481 34.2337C118.068 34.4243 118.684 34.513 119.302 34.496H122.822C124.868 34.496 126.355 34.8843 127.282 35.6608C128.211 36.4452 128.675 37.5103 128.675 38.8718ZM126.274 39.0476C126.283 38.7445 126.22 38.4437 126.089 38.1701C125.959 37.8964 125.765 37.6576 125.524 37.4735C125.024 37.08 124.134 36.8833 122.854 36.8833H117.344C116.321 37.3502 115.81 38.0961 115.81 39.121C115.806 39.4702 115.876 39.8163 116.016 40.1361C116.157 40.456 116.363 40.7422 116.623 40.9757C117.169 41.4882 118.091 41.7444 119.391 41.7444H121.752C123.181 41.7444 124.289 41.5205 125.078 41.0728C125.451 40.8852 125.761 40.5946 125.973 40.2356C126.185 39.8766 126.29 39.4642 126.274 39.0476ZM120.55 29.5168C121.636 29.5168 122.502 29.2545 123.14 28.7298C123.777 28.2051 124.1 27.3945 124.1 26.3032V25.4034C124.1 24.312 123.78 23.504 123.14 22.9793C122.502 22.4547 121.636 22.1923 120.55 22.1923C119.464 22.1923 118.598 22.4547 117.958 22.9793C117.318 23.504 117.009 24.312 117.009 25.4034V26.3032C117.009 27.3945 117.328 28.2034 117.966 28.7298C118.605 29.2562 119.466 29.5186 120.55 29.5168Z" fill="#312783"/>
<path d="M132.927 16.6596C132.374 16.6596 131.972 16.5259 131.728 16.2583C131.473 15.9705 131.341 15.5934 131.361 15.2089V14.8023C131.342 14.4179 131.474 14.0413 131.728 13.7529C131.972 13.4906 132.374 13.3542 132.927 13.3542C133.481 13.3542 133.882 13.488 134.126 13.7529C134.381 14.0413 134.513 14.4179 134.494 14.8023V15.2194C134.514 15.6039 134.382 15.981 134.126 16.2688C133.882 16.5259 133.481 16.6596 132.927 16.6596ZM131.647 20.5291H134.208V37.0328H131.647V20.5291Z" fill="#312783"/>
<path d="M139.643 37.0328V20.5291H142.193V23.184H142.319C142.684 22.3068 143.275 21.542 144.032 20.9672C144.774 20.4163 145.763 20.1409 146.999 20.1409C148.704 20.1409 150.053 20.69 151.044 21.7884C152.036 22.8867 152.532 24.4362 152.532 26.437V37.0249H149.974V26.8698C149.974 23.8967 148.727 22.4101 146.233 22.4101C145.731 22.4097 145.231 22.4741 144.746 22.6016C144.285 22.7221 143.847 22.917 143.45 23.1787C143.073 23.4281 142.761 23.7635 142.539 24.1573C142.302 24.5846 142.183 25.067 142.193 25.5555V37.0328H139.643Z" fill="#312783"/>
<path d="M168.587 37.0328C167.971 37.0328 167.663 36.7232 167.661 36.1041V34.5694H167.564C167.124 35.3753 166.493 36.0615 165.728 36.5684C164.907 37.1333 163.751 37.4158 162.259 37.4158C160.596 37.4158 159.311 37.0266 158.403 36.2484C157.495 35.4701 157.042 34.3456 157.044 32.8747C157.04 32.2437 157.142 31.6165 157.348 31.02C157.547 30.4482 157.895 29.94 158.356 29.5483C158.905 29.1003 159.542 28.7731 160.226 28.5881C161.167 28.3342 162.138 28.2158 163.112 28.2366H167.653V25.8755C167.653 24.2123 167.264 22.9968 166.486 22.229C165.707 21.4613 164.561 21.0774 163.046 21.0774C161.996 21.0372 160.954 21.2839 160.032 21.7909C159.175 22.3418 158.519 23.1554 158.162 24.11L157.587 23.8477C157.99 22.8583 158.659 22.0001 159.521 21.3686C160.364 20.7599 161.541 20.4556 163.054 20.4556C164.826 20.4556 166.148 20.9086 167.021 21.8145C167.894 22.7205 168.331 24.0374 168.333 25.7654V36.4163H171.05V37.0249L168.587 37.0328ZM162.257 36.8072C162.954 36.8117 163.649 36.7145 164.319 36.5186C164.936 36.3442 165.516 36.0569 166.029 35.6712C166.522 35.2951 166.926 34.815 167.212 34.2651C167.522 33.6563 167.676 32.9804 167.661 32.2976V28.8111H163.151C161.252 28.8111 159.882 29.1416 159.041 29.8027C158.639 30.103 158.315 30.4949 158.095 30.9458C157.876 31.3966 157.767 31.8933 157.779 32.3946V33.3548C157.779 34.4828 158.193 35.3433 159.025 35.9283C159.856 36.5133 160.932 36.8072 162.257 36.8072Z" fill="#312783"/>
<path d="M175.977 37.0328C175.358 37.0328 175.048 36.7232 175.048 36.1041V13.3646H175.72V36.4241H178.44V37.0328H175.977Z" fill="#312783"/>
<path d="M183.396 15.508C183.29 15.5203 183.184 15.5078 183.084 15.4713C182.984 15.4349 182.894 15.3756 182.821 15.2981C182.716 15.1673 182.66 15.0041 182.661 14.8364V14.6108C182.66 14.443 182.716 14.2799 182.821 14.1491C182.894 14.0716 182.984 14.0123 183.084 13.9758C183.184 13.9394 183.29 13.9268 183.396 13.9392C183.502 13.9272 183.609 13.94 183.709 13.9764C183.809 14.0128 183.9 14.0719 183.973 14.1491C184.076 14.2807 184.132 14.4435 184.131 14.6108V14.8364C184.132 15.0037 184.076 15.1664 183.973 15.2981C183.9 15.3753 183.809 15.4344 183.709 15.4708C183.609 15.5072 183.502 15.5199 183.396 15.508ZM183.076 20.8492H183.748V37.0328H183.076V20.8492Z" fill="#312783"/>
<path d="M194.661 37.4158C193.487 37.442 192.322 37.2073 191.25 36.7285C190.206 36.2058 189.318 35.4167 188.677 34.4409L189.251 34.0579C189.852 34.949 190.663 35.6787 191.612 36.1828C192.567 36.623 193.61 36.8367 194.661 36.8072C196.198 36.8072 197.358 36.4871 198.147 35.847C198.937 35.2069 199.33 34.273 199.33 33.0663C199.33 31.8595 198.984 30.9675 198.281 30.3799C197.578 29.7923 196.571 29.4093 195.227 29.1968L193.819 28.9712C192.392 28.7578 191.267 28.3267 190.445 27.6778C189.623 27.029 189.214 26.0032 189.217 24.6006C189.202 23.9798 189.339 23.3647 189.616 22.8088C189.879 22.3027 190.251 21.861 190.705 21.5155C191.186 21.1499 191.734 20.8824 192.318 20.7285C192.975 20.5509 193.653 20.4626 194.333 20.4662C194.962 20.4591 195.591 20.5234 196.206 20.6577C196.711 20.77 197.199 20.9463 197.659 21.1823C198.064 21.3911 198.445 21.6426 198.795 21.9326C199.111 22.1961 199.405 22.4848 199.674 22.7957L199.149 23.2443C198.887 22.9662 198.625 22.696 198.336 22.4284C198.036 22.1542 197.703 21.9181 197.344 21.7254C196.935 21.5102 196.499 21.3488 196.049 21.2453C195.492 21.1207 194.924 21.0618 194.354 21.0695C193.011 21.0695 191.928 21.3625 191.106 21.9484C190.284 22.5343 189.874 23.4035 189.876 24.556C189.876 25.7698 190.206 26.6442 190.867 27.1794C191.528 27.7146 192.552 28.0976 193.937 28.3284L195.345 28.554C195.999 28.6478 196.642 28.8087 197.263 29.0341C197.797 29.2227 198.291 29.5101 198.719 29.8815C199.121 30.245 199.437 30.693 199.645 31.1932C199.881 31.7759 199.996 32.4009 199.981 33.0295C199.981 34.4287 199.507 35.5104 198.559 36.2746C197.611 37.0389 196.312 37.4193 194.661 37.4158Z" fill="#312783"/>
<path d="M77.8547 53.4263H81.1759C81.457 53.4093 81.7386 53.4509 82.0028 53.5485C82.267 53.646 82.508 53.7974 82.7106 53.993C83.0744 54.3707 83.2572 54.9286 83.2589 55.6667C83.2841 56.1471 83.1673 56.6242 82.9231 57.0387C82.695 57.3746 82.3576 57.6212 81.9682 57.7365V57.7628C82.2258 57.7986 82.4732 57.8869 82.6952 58.0223C82.9172 58.1577 83.1091 58.3372 83.2589 58.5498C83.5567 59.0268 83.7031 59.5829 83.6786 60.1448C83.7149 60.8014 83.5085 61.4484 83.0989 61.9628C82.7132 62.4114 82.1413 62.6344 81.3884 62.6344H77.8547V53.4263ZM78.1459 57.6552H81.1759C81.4448 57.6608 81.7122 57.6136 81.963 57.5162C82.1728 57.4334 82.3618 57.3053 82.5165 57.141C82.6602 56.9821 82.77 56.7955 82.8392 56.5927C82.9094 56.3876 82.9449 56.1721 82.9441 55.9552V55.4017C82.9449 55.184 82.9095 54.9677 82.8392 54.7616C82.7703 54.5594 82.6605 54.3737 82.5165 54.2159C82.3626 54.0508 82.1734 53.9225 81.963 53.8408C81.7126 53.7421 81.4449 53.6948 81.1759 53.7018H78.1459V57.6552ZM78.1459 62.3773H81.3884C81.6906 62.3848 81.991 62.3285 82.2699 62.212C82.503 62.1119 82.7122 61.9635 82.8838 61.7765C83.0455 61.5971 83.1687 61.3863 83.2458 61.1574C83.3251 60.9216 83.365 60.6743 83.3638 60.4255V59.872C83.3635 59.6258 83.3236 59.3814 83.2458 59.1479C83.1693 58.9171 83.0461 58.7046 82.8838 58.5235C82.7122 58.3366 82.503 58.1882 82.2699 58.0881C81.991 57.9716 81.6906 57.9153 81.3884 57.9228H78.1459V62.3773Z" fill="#312783"/>
<path d="M92.6401 53.7568C92.5963 53.762 92.552 53.7568 92.5105 53.7418C92.4691 53.7268 92.4317 53.7023 92.4014 53.6703C92.3589 53.6155 92.3358 53.5481 92.3358 53.4788V53.3869C92.3364 53.3185 92.3594 53.2521 92.4014 53.1981C92.468 53.1423 92.552 53.1118 92.6388 53.1118C92.7256 53.1118 92.8097 53.1423 92.8762 53.1981C92.9193 53.2515 92.9425 53.3183 92.9418 53.3869V53.4788C92.9431 53.5483 92.9199 53.6161 92.8762 53.6703C92.8463 53.7021 92.8094 53.7264 92.7684 53.7415C92.7274 53.7565 92.6835 53.7618 92.6401 53.7568ZM92.5063 55.9579H92.7844V62.6239H92.5063V55.9579Z" fill="#312783"/>
<path d="M104.314 62.7812C103.929 62.8028 103.544 62.7348 103.19 62.5828C102.835 62.4308 102.521 62.1988 102.271 61.905C101.788 61.3226 101.546 60.4482 101.546 59.2817C101.546 58.1151 101.788 57.2407 102.271 56.6583C102.534 56.3813 102.851 56.1608 103.202 56.0101C103.553 55.8594 103.931 55.7817 104.313 55.7817C104.695 55.7817 105.073 55.8594 105.424 56.0101C105.775 56.1608 106.092 56.3813 106.355 56.6583C106.838 57.2442 107.079 58.1186 107.079 59.2817C107.079 60.4447 106.838 61.3192 106.355 61.905C106.105 62.1985 105.791 62.4303 105.437 62.5822C105.083 62.7342 104.699 62.8023 104.314 62.7812ZM104.314 62.532C104.66 62.5535 105.007 62.4935 105.326 62.3568C105.645 62.2202 105.927 62.0106 106.151 61.745C106.57 61.2203 106.783 60.5094 106.783 59.6043V58.9669C106.783 58.0618 106.57 57.3482 106.151 56.8262C105.914 56.5769 105.629 56.3784 105.314 56.2428C104.998 56.1071 104.658 56.0372 104.314 56.0372C103.971 56.0372 103.631 56.1071 103.315 56.2428C102.999 56.3784 102.714 56.5769 102.478 56.8262C102.058 57.3509 101.846 58.0618 101.846 58.9669V59.5991C101.846 60.5042 102.058 61.2177 102.478 61.7398C102.701 62.0062 102.983 62.2166 103.302 62.3542C103.621 62.4918 103.967 62.5527 104.314 62.532Z" fill="#312783"/>
<path d="M116.484 62.6239C116.432 62.6313 116.38 62.6267 116.33 62.6102C116.28 62.5937 116.235 62.5659 116.199 62.529C116.162 62.492 116.134 62.447 116.117 62.3974C116.101 62.3479 116.096 62.2952 116.104 62.2435V56.2097H114.852V55.9605H115.799C115.843 55.9666 115.887 55.9632 115.929 55.9505C115.971 55.9378 116.01 55.9162 116.043 55.887C116.092 55.8087 116.113 55.7164 116.104 55.6247V54.0507H116.379V55.95H117.974V56.1992H116.379V62.3773H117.869V62.6265L116.484 62.6239Z" fill="#312783"/>
<path d="M128.649 62.7812C128.262 62.8018 127.876 62.7335 127.52 62.5816C127.164 62.4297 126.847 62.1983 126.595 61.905C126.101 61.3226 125.855 60.4482 125.855 59.2817C125.855 58.1151 126.097 57.2459 126.581 56.674C126.826 56.3807 127.135 56.1482 127.485 55.9948C127.834 55.8414 128.215 55.7713 128.596 55.7899C128.975 55.7854 129.35 55.8642 129.695 56.0208C130.025 56.1757 130.316 56.4035 130.545 56.6871C130.795 56.9987 130.983 57.3548 131.099 57.7365C131.238 58.1822 131.305 58.647 131.298 59.1138V59.2449H126.159V59.6017C126.159 60.5059 126.374 61.2195 126.804 61.7424C127.029 62.0059 127.312 62.214 127.631 62.3505C127.949 62.487 128.295 62.5482 128.641 62.5294C129.767 62.5294 130.536 61.9846 130.947 60.895L131.183 60.9869C131.006 61.5077 130.678 61.9642 130.241 62.2985C129.778 62.6303 129.218 62.7999 128.649 62.7812ZM128.596 56.0497C128.255 56.0307 127.914 56.092 127.6 56.2286C127.287 56.3653 127.01 56.5736 126.791 56.8367C126.368 57.3613 126.157 58.0749 126.159 58.9773V59.0036H130.994V58.9511C130.999 58.5468 130.941 58.1442 130.823 57.7575C130.72 57.4243 130.554 57.1137 130.335 56.8419C130.13 56.5921 129.871 56.3921 129.577 56.2569C129.269 56.1167 128.934 56.0459 128.596 56.0497Z" fill="#312783"/>
<path d="M142.233 62.7813C141.848 62.8028 141.463 62.7349 141.109 62.5829C140.755 62.4308 140.441 62.1989 140.192 61.9051C139.709 61.3227 139.467 60.4482 139.467 59.2817C139.467 58.1152 139.709 57.2407 140.192 56.6583C140.441 56.365 140.755 56.1334 141.109 55.9814C141.464 55.8294 141.848 55.7612 142.233 55.7821C142.703 55.7681 143.167 55.8951 143.565 56.1468C143.924 56.3868 144.214 56.7158 144.407 57.1017L144.171 57.2197C143.988 56.8703 143.723 56.5698 143.4 56.3435C143.049 56.1293 142.643 56.0243 142.233 56.0418C141.886 56.0203 141.54 56.0803 141.221 56.217C140.902 56.3537 140.619 56.5633 140.396 56.8289C139.973 57.3535 139.762 58.0671 139.764 58.9695V59.6018C139.764 60.506 139.975 61.2195 140.396 61.7424C140.619 62.008 140.902 62.2176 141.221 62.3543C141.54 62.491 141.886 62.551 142.233 62.5295C142.677 62.5476 143.117 62.4423 143.505 62.2251C143.844 62.014 144.123 61.7196 144.315 61.3699L144.525 61.5142C144.312 61.8864 144.012 62.2008 143.649 62.4298C143.22 62.6805 142.729 62.8025 142.233 62.7813Z" fill="#312783"/>
<path d="M153.064 52.8754H153.327V56.9573H153.366C153.507 56.6279 153.744 56.3483 154.046 56.1546C154.466 55.8951 154.956 55.7706 155.449 55.7978C155.763 55.777 156.078 55.824 156.372 55.9359C156.667 56.0477 156.933 56.2216 157.154 56.4458C157.546 56.876 157.742 57.5083 157.742 58.3425V62.6238H157.464V58.395C157.464 57.5765 157.288 56.9836 156.939 56.6084C156.74 56.4143 156.503 56.2642 156.242 56.1679C155.981 56.0716 155.703 56.0314 155.425 56.0497C155.159 56.0487 154.894 56.0867 154.638 56.1625C154.394 56.2303 154.165 56.3443 153.964 56.4983C153.77 56.6498 153.613 56.8436 153.505 57.0649C153.386 57.3099 153.327 57.5796 153.332 57.8519V62.6212H153.07L153.064 52.8754Z" fill="#312783"/>
</g>
<defs>
<clipPath id="clip0_1_870">
<rect width="199.988" height="62.5781" fill="white" transform="translate(0.00592041 0.203125)"/>
</clipPath>
</defs>
</svg>
